<svg xmlns="http://www.w3.org/2000/svg" fill="none" viewBox="0 0 24 24"><path fill="#000" d="M3.25 20.125c0 1.0352.83984 1.875 1.875 1.875h13.75c1.0352 0 1.875-.8398 1.875-1.875V9.5H3.25v10.625Zm12.5-7.6562c0-.2579.2109-.4688.4688-.4688h1.5624c.2579 0 .4688.2109.4688.4688v1.5624c0 .2579-.2109.4688-.4688.4688h-1.5624c-.2579 0-.4688-.2109-.4688-.4688v-1.5624Zm0 5c0-.2579.2109-.4688.4688-.4688h1.5624c.2579 0 .4688.2109.4688.4688v1.5624c0 .2579-.2109.4688-.4688.4688h-1.5624c-.2579 0-.4688-.2109-.4688-.4688v-1.5624Zm-5-5c0-.2579.2109-.4688.4688-.4688h1.5624c.2579 0 .4688.2109.4688.4688v1.5624c0 .2579-.2109.4688-.4688.4688h-1.5624c-.2579 0-.4688-.2109-.4688-.4688v-1.5624Zm0 5c0-.2579.2109-.4688.4688-.4688h1.5624c.2579 0 .4688.2109.4688.4688v1.5624c0 .2579-.2109.4688-.4688.4688h-1.5624c-.2579 0-.4688-.2109-.4688-.4688v-1.5624Zm-5-5c0-.2579.21094-.4688.46875-.4688h1.5625c.25781 0 .46875.2109.46875.4688v1.5624c0 .2579-.21094.4688-.46875.4688h-1.5625c-.25781 0-.46875-.2109-.46875-.4688v-1.5624Zm0 5c0-.2579.21094-.4688.46875-.4688h1.5625c.25781 0 .46875.2109.46875.4688v1.5624c0 .2579-.21094.4688-.46875.4688h-1.5625c-.25781 0-.46875-.2109-.46875-.4688v-1.5624ZM18.875 4.5H17V2.625c0-.34375-.2812-.625-.625-.625h-1.25c-.3438 0-.625.28125-.625.625V4.5h-5V2.625C9.5 2.28125 9.21875 2 8.875 2h-1.25C7.28125 2 7 2.28125 7 2.625V4.5H5.125c-1.03516 0-1.875.83984-1.875 1.875V8.25h17.5V6.375c0-1.03516-.8398-1.875-1.875-1.875Z"/></svg>