<svg xmlns="http://www.w3.org/2000/svg" fill="none" viewBox="0 0 24 24"><path fill="#000" d="M12 2C6.47754 2 2 6.47915 2 12c0 5.5241 4.47754 10 10 10 5.5225 0 10-4.4759 10-10 0-5.52085-4.4775-10-10-10Zm0 4.43548c.9353 0 1.6935.75823 1.6935 1.69355 0 .93532-.7582 1.69355-1.6935 1.69355s-1.6935-.75823-1.6935-1.69355c0-.93532.7582-1.69355 1.6935-1.69355Zm2.2581 10.24192c0 .2672-.2167.4839-.4839.4839h-3.5484c-.26721 0-.48386-.2167-.48386-.4839v-.9677c0-.2672.21665-.4839.48386-.4839h.4839v-2.5806h-.4839c-.26721 0-.48386-.2167-.48386-.4839v-.9678c0-.2672.21665-.4838.48386-.4838h2.5807c.2672 0 .4838.2166.4838.4838v4.0323h.4839c.2672 0 .4839.2167.4839.4839v.9677Z"/></svg>