<svg xmlns="http://www.w3.org/2000/svg" fill="none" viewBox="0 0 24 24"><path fill="#000" d="m10.7157 19.9832-1.90608-.5531c-.19998-.0562-.31247-.2656-.25623-.4656L12.8187 4.27192c.0562-.19998.2656-.31248.4656-.25623l1.9061.55308c.2.05625.3125.26561.2562.46559L11.1813 19.727c-.0594.1999-.2656.3156-.4656.2562Zm-3.5622-3.506 1.35927-1.4499c.14374-.1531.13437-.3968-.025-.5374l-2.83102-2.4905 2.83102-2.49039c.15937-.14061.17187-.38434.025-.53746L7.1535 7.52167c-.14061-.14999-.37809-.15937-.53121-.01563L2.11952 11.7245c-.15936.1468-.15936.3999 0 .5468l4.50277 4.2215c.15312.1438.3906.1375.53121-.0156Zm10.2242.0188 4.5028-4.2216c.1593-.1468.1593-.3999 0-.5468l-4.5028-4.22468c-.15-.14062-.3875-.13437-.5312.01562l-1.3593 1.44989c-.1437.15311-.1343.39684.025.53746l2.8311 2.49351-2.8311 2.4905c-.1593.1406-.1718.3843-.025.5374l1.3593 1.4499c.1406.1531.3781.1594.5312.0188Z"/></svg>