<svg xmlns="http://www.w3.org/2000/svg" fill="none" viewBox="0 0 24 24"><path fill="#000" d="M12 2C6.47714 2 2 6.47714 2 12c0 5.5229 4.47714 10 10 10 5.5229 0 10-4.4771 10-10 0-5.52286-4.4771-10-10-10Zm4.7231 13.982c-.0641.0753-1.6038 1.844-4.4294 1.844-3.41503 0-5.826-2.5508-5.826-5.8697 0-3.27832 2.50016-5.78227 5.7969-5.78227 2.6998 0 4.1114 1.50464 4.1702 1.56871.0724.07891.1166.1796.1256.2863.009.1067-.0176.21339-.0757.30334l-.9024 1.39738c-.1633.2527-.5151.29644-.7352.09254-.0094-.00863-1.0698-.9629-2.4952-.9629-1.8595 0-2.98049 1.3538-2.98049 3.0678 0 1.5969 1.02879 3.2134 2.99509 3.2134 1.5603 0 2.6322-1.1427 2.6429-1.1542.2069-.2244.5669-.203.7462.0424l.9898 1.3537c.0643.0879.097.1949.093.3036-.0041.1088-.0447.213-.1153.2959Z"/></svg>